<svg width="282pt" height="229pt" viewBox="0 0 282 229" version="1.1" xmlns="http://www.w3.org/2000/svg">
  <defs></defs>
  <g id="surface1">
    <path style=" stroke:none;fill-rule:nonzero;fill:rgb(0%,0%,60.398865%);fill-opacity:1;" d="M 103.322 80.981 L 42.673 61.181 L 42.673 79.379 L 84.659 93.088 L 42.673 124.441 L 42.673 147.84 L 103.322 167.64 L 103.322 149.442 L 61.332 135.733 L 103.322 104.383 Z M 103.322 80.981"></path>
    <path style=" stroke:none;fill-rule:nonzero;fill:rgb(0%,0%,60.398865%);fill-opacity:1;" d="M 141.002 179.279 L 141.002 92.527 L 120.856 86.834 L 120.856 173.586 Z M 141.002 179.279"></path>
    <path style=" stroke:none;fill-rule:nonzero;fill:rgb(0%,0%,60.398865%);fill-opacity:1;" d="M 204.149 90.292 C 217.51 85.871 227.573 92.936 227.573 108.533 C 227.573 124.133 217.51 137.862 204.149 142.283 C 190.791 146.705 180.727 139.64 180.727 124.044 C 180.727 108.443 190.791 94.714 204.149 90.292 M 141.002 46.848 L 0 0 L 0 182.149 L 141.002 229 L 141.002 207.797 L 20.142 167.64 L 20.142 27.895 L 141.002 68.052 L 261.858 27.895 L 261.858 170.482 L 180.727 197.441 L 180.727 156.449 C 187.321 162.239 196.341 163.936 206.752 160.488 C 230.521 152.62 248.391 128.161 248.391 101.642 C 248.391 75.129 230.521 62.5 206.752 70.368 C 196.341 73.811 187.321 81.476 180.727 91.634 L 180.727 80.713 L 159.907 87.606 L 159.907 225.561 L 282 184.994 L 282 0 Z M 141.002 46.848"></path>
  </g>
</svg>